<svg width="48" height="48" viewBox="0 0 48 48" fill="none" xmlns="http://www.w3.org/2000/svg">
<rect width="48" height="48" rx="6" fill="#131313"/>
<path d="M33.4151 15.3532C31.7786 14.5876 30.0289 14.0311 28.1995 13.7143C27.9748 14.1205 27.7124 14.6668 27.5314 15.1014C25.5868 14.8089 23.66 14.8089 21.7511 15.1014C21.5702 14.6668 21.3017 14.1205 21.0751 13.7143C19.2437 14.0311 17.492 14.5896 15.8555 15.3573C12.5547 20.3452 11.66 25.2091 12.1074 30.0041C14.2966 31.6389 16.4182 32.632 18.504 33.2819C19.019 32.5731 19.4784 31.8197 19.874 31.0256C19.1204 30.7392 18.3987 30.3859 17.7167 29.9756C17.8976 29.8416 18.0746 29.7014 18.2456 29.5573C22.4053 31.5029 26.9249 31.5029 31.035 29.5573C31.208 29.7014 31.3849 29.8416 31.5639 29.9756C30.8799 30.3879 30.1561 30.7413 29.4025 31.0276C29.7982 31.8197 30.2555 32.5752 30.7725 33.2839C32.8603 32.6341 34.9839 31.641 37.1732 30.0041C37.6981 24.4455 36.2764 19.6262 33.4151 15.3532ZM20.4408 27.0552C19.192 27.0552 18.168 25.8895 18.168 24.4699C18.168 23.0503 19.1702 21.8825 20.4408 21.8825C21.7114 21.8825 22.7354 23.0482 22.7135 24.4699C22.7155 25.8895 21.7114 27.0552 20.4408 27.0552ZM28.8398 27.0552C27.5911 27.0552 26.567 25.8895 26.567 24.4699C26.567 23.0503 27.5692 21.8825 28.8398 21.8825C30.1104 21.8825 31.1344 23.0482 31.1125 24.4699C31.1125 25.8895 30.1104 27.0552 28.8398 27.0552Z" fill="#808080"/>
</svg>
