<svg width="48" height="48" viewBox="0 0 48 48" fill="none" xmlns="http://www.w3.org/2000/svg">
<rect width="48" height="48" rx="6" fill="#131313"/>
<mask id="mask0_31_1829" style="mask-type:alpha" maskUnits="userSpaceOnUse" x="10" y="10" width="28" height="28">
<rect x="10" y="10" width="28" height="28" fill="#D9D9D9"/>
</mask>
<g mask="url(#mask0_31_1829)">
<path d="M24 29.8333C24.3306 29.8333 24.6077 29.7215 24.8313 29.4979C25.0549 29.2743 25.1667 28.9972 25.1667 28.6667V24C25.1667 23.6694 25.0549 23.3924 24.8313 23.1688C24.6077 22.9451 24.3306 22.8333 24 22.8333C23.6695 22.8333 23.3924 22.9451 23.1688 23.1688C22.9452 23.3924 22.8334 23.6694 22.8334 24V28.6667C22.8334 28.9972 22.9452 29.2743 23.1688 29.4979C23.3924 29.7215 23.6695 29.8333 24 29.8333ZM24 20.5C24.3306 20.5 24.6077 20.3882 24.8313 20.1646C25.0549 19.941 25.1667 19.6639 25.1667 19.3333C25.1667 19.0028 25.0549 18.7257 24.8313 18.5021C24.6077 18.2785 24.3306 18.1667 24 18.1667C23.6695 18.1667 23.3924 18.2785 23.1688 18.5021C22.9452 18.7257 22.8334 19.0028 22.8334 19.3333C22.8334 19.6639 22.9452 19.941 23.1688 20.1646C23.3924 20.3882 23.6695 20.5 24 20.5ZM24 35.6667C22.3862 35.6667 20.8695 35.3604 19.45 34.7479C18.0306 34.1354 16.7959 33.3042 15.7459 32.2542C14.6959 31.2042 13.8646 29.9694 13.2521 28.55C12.6396 27.1306 12.3334 25.6139 12.3334 24C12.3334 22.3861 12.6396 20.8694 13.2521 19.45C13.8646 18.0306 14.6959 16.7958 15.7459 15.7458C16.7959 14.6958 18.0306 13.8646 19.45 13.2521C20.8695 12.6396 22.3862 12.3333 24 12.3333C25.6139 12.3333 27.1306 12.6396 28.55 13.2521C29.9695 13.8646 31.2042 14.6958 32.2542 15.7458C33.3042 16.7958 34.1355 18.0306 34.748 19.45C35.3605 20.8694 35.6667 22.3861 35.6667 24C35.6667 25.6139 35.3605 27.1306 34.748 28.55C34.1355 29.9694 33.3042 31.2042 32.2542 32.2542C31.2042 33.3042 29.9695 34.1354 28.55 34.7479C27.1306 35.3604 25.6139 35.6667 24 35.6667Z" fill="#808080"/>
</g>
</svg>
