<svg id="Componente_2_13" data-name="Componente 2 – 13" xmlns="http://www.w3.org/2000/svg" width="167" height="43" viewBox="0 0 167 43" data-v-23cacc73=""><path id="Caminho_340" data-name="Caminho 340" d="M69.734,14.147a4.788,4.788,0,0,1,3.655,1.386,5.308,5.308,0,0,1,1.31,3.8v9.454H71.224v-8.9q0-2.717-2.455-2.717a2.669,2.669,0,0,0-2.138.956,4.189,4.189,0,0,0-.814,2.786v7.874H62.369v-8.9q0-2.717-2.483-2.717a2.64,2.64,0,0,0-2.11.956,4.19,4.19,0,0,0-.814,2.786v7.874H53.486V14.479h3.366v2.052a4.535,4.535,0,0,1,4.055-2.384,4.366,4.366,0,0,1,4.414,2.661,4.93,4.93,0,0,1,4.414-2.661" fill="#fff" data-v-23cacc73=""></path><path id="Caminho_341" data-name="Caminho 341" d="M90.313,28.785H86.837a5.217,5.217,0,0,1-.386-1.747,5.167,5.167,0,0,1-4.579,2.079,5.733,5.733,0,0,1-3.738-1.136,3.853,3.853,0,0,1-1.393-3.161q0-3.909,5.462-4.464l2.152-.194A3.176,3.176,0,0,0,85.9,19.65a1.351,1.351,0,0,0,.469-1.123,1.549,1.549,0,0,0-.593-1.345,3.515,3.515,0,0,0-2-.43,3.6,3.6,0,0,0-2.179.513,2.38,2.38,0,0,0-.773,1.76H77.4q.3-4.879,6.4-4.879,5.931,0,5.931,4.3v7.624a4.878,4.878,0,0,0,.58,2.717M82.7,26.623a3.855,3.855,0,0,0,2.648-.9,3.276,3.276,0,0,0,1.021-2.592v-1.3a2.984,2.984,0,0,1-1.628.582l-1.876.222a3.9,3.9,0,0,0-1.972.652,1.7,1.7,0,0,0-.593,1.4,1.75,1.75,0,0,0,.621,1.428,2.724,2.724,0,0,0,1.779.513" fill="#fff" data-v-23cacc73=""></path><path id="Caminho_342" data-name="Caminho 342" d="M98.644,29.118a6.734,6.734,0,0,1-5.1-2.051,7.543,7.543,0,0,1-1.931-5.434,7.583,7.583,0,0,1,1.931-5.462,6.672,6.672,0,0,1,5.1-2.024A6.837,6.837,0,0,1,103.2,15.63a5.943,5.943,0,0,1,2.069,4.006h-3.476a3.139,3.139,0,0,0-1.076-1.913,3.2,3.2,0,0,0-2.069-.665,3.063,3.063,0,0,0-2.552,1.178,5.406,5.406,0,0,0-.924,3.4,5.345,5.345,0,0,0,.938,3.4,3.071,3.071,0,0,0,2.538,1.178,3.279,3.279,0,0,0,2.138-.707,3.078,3.078,0,0,0,1.062-2.038h3.476a6,6,0,0,1-2.1,4.117,6.85,6.85,0,0,1-4.579,1.539" fill="#fff" data-v-23cacc73=""></path><path id="Caminho_343" data-name="Caminho 343" d="M120.905,28.785h-3.972l-4.138-6.654-2.152,2.162v4.491h-3.421V9.045h3.421V20.412l5.793-5.933h4.138L115.2,19.886Z" fill="#fff" data-v-23cacc73=""></path><path id="Caminho_344" data-name="Caminho 344" d="M129.126,14.147a5.688,5.688,0,0,1,4.607,2.052,8.349,8.349,0,0,1,1.71,5.434,8.168,8.168,0,0,1-1.71,5.406,5.655,5.655,0,0,1-4.607,2.079,5.428,5.428,0,0,1-5.352-3.466v8.567h-1.131V14.479h1.076v3.272a5.432,5.432,0,0,1,5.407-3.6m-3.972,12.171a4.63,4.63,0,0,0,3.834,1.775,4.727,4.727,0,0,0,3.862-1.8,7.273,7.273,0,0,0,1.434-4.713,7.113,7.113,0,0,0-1.434-4.658,4.739,4.739,0,0,0-3.862-1.746,4.63,4.63,0,0,0-3.834,1.774,7.225,7.225,0,0,0-1.435,4.685,7.223,7.223,0,0,0,1.435,4.685" fill="#fff" data-v-23cacc73=""></path><rect id="Retângulo_35" data-name="Retângulo 35" width="1.131" height="19.74" transform="translate(138.146 9.045)" fill="#fff" data-v-23cacc73=""></rect><path id="Caminho_345" data-name="Caminho 345" d="M162.972,22.076l2.786-7.6H167L160.931,30.7a6.727,6.727,0,0,1-1.655,2.717,3.518,3.518,0,0,1-2.427.859q-.828,0-1.1-.028v-.97h1.076q1.986,0,3.034-2.828.221-.555.5-1.3l-5.738-14.666h1.241l2.924,7.569q.551,1.414,2.152,5.766.22-.637,2.041-5.739" fill="#fff" data-v-23cacc73=""></path><path id="Caminho_346" data-name="Caminho 346" d="M20.616,30.3a.443.443,0,0,0,.349.217H21.9a.447.447,0,0,0,.35-.217l3.827-9.8c.241-.508.429-.483.429.082v6c0,.593-.321,1.051-.695,1.051s-.67.457-.67,1.048v2.476h6.5V29.384l.028-.7c0-.591-.321-1.048-.7-1.048-.321,0-.561-.3-.67-.7V16.954c0-.565.269-1.024.67-1.024.375,0,.7-.483.7-1.049V12.136H25.758L21.339,22.793,16.921,12.136h-5.97v2.745c0,.567.293,1.049.67,1.049.4,0,.695.459.695,1.024v9.632c0,.593-.293,1.051-.695,1.051-.377,0-.67.457-.67,1.048l-.028,2.476h6.534V28.684c0-.591-.295-1.048-.67-1.048s-.7-.458-.7-1.051v-6c0-.565.188-.591.429-.082Z" fill="#fff" data-v-23cacc73=""></path><path id="Caminho_347" data-name="Caminho 347" d="M21.393,0A21.5,21.5,0,1,1,0,21.5,21.491,21.491,0,0,1,21.393,0m0,4.279A17.221,17.221,0,1,0,38.529,21.5,17.211,17.211,0,0,0,21.393,4.279" fill="#fff" data-v-23cacc73=""></path><g id="Grupo_99" data-name="Grupo 99" transform="translate(-50 -50)" data-v-23cacc73=""><path id="Caminho_349" data-name="Caminho 349" d="M142.5,16.713V27.771a1.429,1.429,0,1,0,2.858,0V16.713a1.429,1.429,0,1,0-2.858,0" transform="translate(50 50)" fill="#fff" data-v-23cacc73=""></path><path id="Caminho_351" data-name="Caminho 351" d="M142.738,15.92a1.445,1.445,0,0,0,.4,1.991l8.869,5.922a1.429,1.429,0,0,0,1.981-.4,1.446,1.446,0,0,0-.4-1.991l-8.868-5.922a1.428,1.428,0,0,0-1.981.4" transform="translate(50 50)" fill="#fff" data-v-23cacc73=""></path><path id="Caminho_353" data-name="Caminho 353" d="M152.081,21.4l-8.841,5.13a1.445,1.445,0,0,0-.523,1.962,1.43,1.43,0,0,0,1.952.526l8.841-5.13a1.436,1.436,0,0,0-.718-2.679,1.412,1.412,0,0,0-.711.192" transform="translate(50 50)" fill="#fff" data-v-23cacc73=""></path><path id="Caminho_354" data-name="Caminho 354" d="M143.753,18.119a1.425,1.425,0,1,0-1.243-1.582,1.423,1.423,0,0,0,1.243,1.582" transform="translate(50 50)" fill="#fff" fill-rule="evenodd" data-v-23cacc73=""></path></g></svg>