<svg width="48" height="48" viewBox="0 0 48 48" fill="none" xmlns="http://www.w3.org/2000/svg">
<rect width="48" height="48" rx="6" fill="#131313"/>
<path d="M34.244 17.8435C34.244 17.7331 34.244 17.7304 34.1303 17.7304C33.8637 17.7282 33.5976 17.7051 33.3344 17.6614C32.3788 17.5125 29.2736 15.8574 28.7512 13.1459C28.6886 12.8115 28.647 12.4734 28.6266 12.1335C28.6266 12.0039 28.6266 12.0039 28.4994 12.0012H24.7743C24.528 12.0012 24.5632 11.9708 24.5632 12.2218V28.3089C24.5673 28.5083 24.5537 28.7077 24.5226 28.9047C24.4482 29.3675 24.2827 29.8103 24.036 30.2062C23.7894 30.6022 23.4667 30.9433 23.0874 31.209C22.708 31.4746 22.2799 31.6594 21.8287 31.7521C21.3775 31.8449 20.9125 31.8437 20.4618 31.7486C20.1879 31.6818 19.9205 31.5894 19.6632 31.4728L19.5982 31.4148C19.5115 31.3421 19.4211 31.2739 19.3275 31.2107C18.204 30.4191 17.6707 29.3184 17.8331 27.942C17.9956 26.5656 18.7861 25.5974 20.0828 25.1091C20.4694 24.9638 20.8815 24.9018 21.2929 24.9271C21.5601 24.9368 21.8253 24.9775 22.0834 25.0484C22.1727 25.076 22.2215 25.0484 22.2269 24.9464C22.2269 24.9133 22.2269 24.8802 22.2269 24.8443C22.2269 23.8816 22.1917 21.7797 22.1863 21.7742C22.1863 21.4984 22.1863 21.2225 22.1863 20.9467C22.1863 20.8667 22.1484 20.8529 22.0807 20.8446C21.0747 20.7157 20.0534 20.7976 19.0797 21.0854C18.1059 21.3732 17.2001 21.8608 16.418 22.5182C15.6359 23.1757 14.9939 23.9891 14.5315 24.9085C14.0691 25.8279 13.796 26.8339 13.729 27.8648C13.7047 28.2581 13.7101 28.6528 13.7453 29.0454C13.8325 30.0811 14.1294 31.0871 14.6173 32C15.1051 32.913 15.7733 33.7131 16.5797 34.3498C16.6965 34.4584 16.8266 34.5511 16.9668 34.6256L17.1509 34.7911C17.3462 34.9401 17.5547 35.0703 17.7736 35.1801C19.2764 35.9517 20.9898 36.1875 22.6398 35.85C24.2897 35.5125 25.781 34.621 26.8751 33.3181C28.0479 31.9417 28.6863 30.1758 28.67 28.353C28.6835 25.6829 28.67 23.0127 28.67 20.3536C28.67 20.2902 28.632 20.1991 28.7024 20.166C28.7728 20.1329 28.8107 20.2157 28.8594 20.2488C29.8254 20.8987 30.8983 21.3659 32.0268 21.628C32.6869 21.7878 33.3626 21.871 34.041 21.8763C34.2576 21.8763 34.2846 21.8763 34.2846 21.6473C34.2928 20.6874 34.244 18.0945 34.244 17.8435Z" fill="#808080"/>
</svg>
