<svg width="48" height="48" viewBox="0 0 48 48" fill="none" xmlns="http://www.w3.org/2000/svg">
<rect width="48" height="48" rx="6" fill="#131313"/>
<path fill-rule="evenodd" clip-rule="evenodd" d="M32.2134 15.4612C30.1941 13.4367 27.5073 12.2157 24.6542 12.026C21.8011 11.8362 18.9763 12.6907 16.7066 14.4299C14.437 16.1692 12.8774 18.6746 12.3187 21.479C11.7599 24.2833 12.2403 27.1951 13.67 29.6714L12 35.7737L18.2426 34.1367C19.9711 35.0762 21.907 35.5689 23.8744 35.5701C26.2042 35.5703 28.4818 34.8797 30.4192 33.5855C32.3565 32.2914 33.8666 30.4519 34.7586 28.2995C35.6506 26.1472 35.8843 23.7787 35.4303 21.4935C34.9763 19.2084 33.8549 17.1091 32.2079 15.4612H32.2134ZM23.8772 33.581C22.1231 33.5768 20.4023 33.1018 18.8946 32.2053L18.537 31.9935L14.831 32.9647L15.805 29.3633L15.5849 28.9946C14.4314 27.1555 13.9218 24.9851 14.1363 22.8248C14.3507 20.6645 15.277 18.6367 16.7695 17.0602C18.2621 15.4837 20.2362 14.4479 22.3816 14.1157C24.5269 13.7834 26.7219 14.1736 28.6213 15.2248C30.5208 16.276 32.0171 17.9286 32.8749 19.9229C33.7327 21.9171 33.9035 24.1399 33.3604 26.2418C32.8172 28.3437 31.5909 30.2055 29.8743 31.5345C28.1577 32.8635 26.0481 33.5844 23.8772 33.5837V33.581ZM29.2503 26.2434C28.956 26.0948 27.5088 25.385 27.2392 25.2859C26.9696 25.1869 26.7715 25.1401 26.5761 25.4345C26.3808 25.7289 25.8168 26.3919 25.6435 26.5873C25.4701 26.7826 25.2995 26.8074 25.0052 26.6616C24.1383 26.3144 23.3378 25.8202 22.6391 25.2007C21.9908 24.6067 21.4344 23.9197 20.9883 23.162C20.815 22.8676 20.9691 22.708 21.1176 22.5622C21.2662 22.4164 21.412 22.2183 21.5578 22.045C21.6802 21.9005 21.7812 21.7393 21.8577 21.5663C21.8964 21.4846 21.9143 21.3947 21.91 21.3045C21.9057 21.2143 21.8792 21.1266 21.833 21.049C21.7587 20.9032 21.1699 19.4533 20.9251 18.8645C20.6802 18.2758 20.4436 18.3693 20.2648 18.361C20.0859 18.3528 19.8961 18.361 19.698 18.361C19.549 18.3653 19.4024 18.4002 19.2675 18.4636C19.1326 18.5271 19.0122 18.6176 18.9139 18.7297C18.5815 19.045 18.3183 19.426 18.1412 19.8485C17.964 20.271 17.8768 20.7258 17.8849 21.1838C17.8849 22.631 18.9387 24.0314 19.0872 24.2267C19.2358 24.4221 21.1617 27.3962 24.1138 28.67C24.662 28.9061 25.2222 29.1137 25.792 29.2918C26.3927 29.474 27.0277 29.5135 27.6464 29.4073C28.2131 29.322 29.3879 28.6947 29.6328 28.0097C29.8776 27.3246 29.8804 26.7331 29.8061 26.6093C29.7318 26.4855 29.5447 26.3974 29.2503 26.2434Z" fill="#808080"/>
</svg>
