<svg width="48" height="48" viewBox="0 0 48 48" fill="none" xmlns="http://www.w3.org/2000/svg">
<rect width="48" height="48" rx="6" fill="#131313"/>
<path d="M37.1298 16.6983C36.9737 16.114 36.6663 15.5812 36.2387 15.1535C35.811 14.7259 35.2782 14.4185 34.6939 14.2623C32.5686 13.7143 24.0002 13.7143 24.0002 13.7143C24.0002 13.7143 15.4318 13.7143 13.2943 14.2867C12.71 14.4428 12.1771 14.7502 11.7495 15.1779C11.3218 15.6055 11.0145 16.1383 10.8583 16.7226C10.2859 18.8541 10.2859 23.3179 10.2859 23.3179C10.2859 23.3179 10.2859 27.7787 10.8583 29.9162C11.0159 30.4982 11.3241 31.0283 11.7517 31.4532C12.1793 31.8782 12.7114 32.183 13.2943 32.337C15.4318 32.8972 24.0002 32.8972 24.0002 32.8972C24.0002 32.8972 32.5685 32.8972 34.7061 32.3248C35.289 32.1708 35.821 31.866 36.2486 31.4411C36.6763 31.0161 36.9844 30.486 37.142 29.9041C37.7145 27.7726 37.7145 23.3057 37.7145 23.3057C37.7145 23.3057 37.7023 18.8358 37.1298 16.6983ZM21.2597 27.4164V19.1951L28.3788 23.3057L21.2597 27.4164Z" fill="#808080"/>
</svg>
