<?xml version="1.0" encoding="utf-8"?>
<!-- Generator: Adobe Illustrator 26.0.1, SVG Export Plug-In . SVG Version: 6.00 Build 0)  -->
<svg version="1.1"
	 id="draw_on_this_one" 
	 xmlns="http://www.w3.org/2000/svg"  x="0px" y="0px" viewBox="0 0 512 512"
	 style="enable-background:new 0 0 512 512;" xml:space="preserve">
<style type="text/css">
	.st0{fill:#FFFFFF;}
</style>
<g id="g2373" transform="matrix(13.443512,0,0,13.443512,6.6225952,7.2950296)">
	<g id="g1737">
		<path id="path4" class="st0" d="M9.3,11l0.6-0.6V7.9L8.3,5.6c0,0-0.3-0.3-0.6-0.3c-0.3,0-3,1-4.3,2s-3,3.8-3,4.1s1.4,1.7,2.3,1.7
			S9.3,11,9.3,11z"/>
		<path id="path6" class="st0" d="M27.8,11l-0.5-0.6V7.9l1.5-2.3c0,0,0.3-0.3,0.6-0.3c0.3,0,2.9,1,4.3,2s3,3.8,3,4.1
			c0,0.3-1.3,1.7-2.3,1.7C33.5,13.1,27.8,11,27.8,11L27.8,11z"/>
		<path id="path8" class="st0" d="M28.9,18.2c0-0.9-0.4-2.9-1-3.6c-0.6-0.7-0.8-2.1-0.8-2.6s0-0.6,0-0.6l-0.8-0.8V7.5l0.9-1.4
			c0,0-3-1.6-3.7-1.6s-0.6,0.6-0.8,0.8C22.5,5.5,22.2,8,20.3,8s-1.9,0-1.9,0s0,0-1.9,0s-2.2-2.6-2.4-2.8C13.9,5,14,4.4,13.3,4.4
			S9.8,6.1,9.8,6.1l0.9,1.4v3.1l-0.8,0.8c0,0,0,0.1,0,0.6s-0.2,2-0.8,2.6c-0.6,0.6-1,2.6-1,3.6s2.6,10.3,2.6,11.4s-0.3,2.2-0.3,2.2
			v1.7h8.1h8.1v-1.7c0,0-0.3-1-0.3-2.2C26.3,28.5,28.9,19.1,28.9,18.2L28.9,18.2z M19.5,13.1l1-3.5h2.2V16l-4.2,3l-0.9-0.7l4-5.8
			L19.5,13.1z M14.3,9.5h2.5l-0.5,5.9l1.5-0.5l-0.5,3l-2.9-2C14.3,16,14.3,9.5,14.3,9.5z M18.5,32h-7.4c0.3-0.3,0.3-2.5,0.3-2.5
			c0-2.6-1.4-5.9-1.4-7.7c0-0.8,2.2-3.8,2.2-3.8c0.4,0.4,1.8,1.4,2.8,1.4s3.5,0,3.5,0s2.5,0,3.5,0s2.4-1,2.8-1.4
			c0,0,2.2,3.1,2.2,3.8c0,1.8-1.4,5.1-1.4,7.7c0,0,0,2.2,0.3,2.5H18.5z"/>
		<path id="path10" class="st0" d="M24.9,1.7c-0.5,0-1.6,0-1.6,0l-2.5,4h-2.3h-2.3l-2.5-4c0,0-1.1,0-1.6,0s-3.9,1.9-3.9,2
			s0.2,0.8,0.5,0.8s4.3-2.1,4.5-2.1S16,6.5,16,6.5h2.5H21c0,0,2.6-4.2,2.8-4.2c0.2,0,4.2,2.1,4.5,2.1c0.4,0,0.5-0.7,0.5-0.8
			C28.9,3.6,25.4,1.7,24.9,1.7z"/>
		<polygon id="polygon12" class="st0" points="16.9,27.2 18.5,28.2 20.1,27.2 20.1,27 20.1,26.6 20.1,26.1 20.1,25.8 20.1,25.5 
			18.5,24.5 16.9,25.5 16.9,25.8 16.9,26.1 16.9,26.6 16.9,27 		"/>
		<polygon id="polygon14" class="st0" points="12.9,27.2 14.5,28.2 16,27.2 16,27 16,26.6 16,26.1 16,25.8 16,25.5 14.5,24.5 
			12.9,25.5 12.9,25.8 12.9,26.1 12.9,26.6 12.9,27 		"/>
		<polygon id="polygon16" class="st0" points="21,27.2 22.5,28.2 24.1,27.2 24.1,27 24.1,26.6 24.1,26.1 24.1,25.8 24.1,25.5 
			22.5,24.5 21,25.5 21,25.8 21,26.1 21,26.6 21,27 		"/>
		<polygon id="polygon18" class="st0" points="18.9,23.6 20.5,24.6 22.1,23.6 22.1,23.4 22.1,23 22.1,22.5 22.1,22.2 22.1,21.9 
			20.5,20.9 18.9,21.9 18.9,22.2 18.9,22.5 18.9,23 18.9,23.4 		"/>
		<polygon id="polygon20" class="st0" points="14.9,23.6 16.5,24.6 18.1,23.6 18.1,23.4 18.1,23 18.1,22.5 18.1,22.2 18.1,21.9 
			16.5,20.9 14.9,21.9 14.9,22.2 14.9,22.5 14.9,23 14.9,23.4 		"/>
		<path id="path22" class="st0" d="M25,25.5v0.4v0.3v0.4V27v0.2l0,0c0.1-0.7,0.3-1.4,0.5-2L25,25.5z"/>
		<path id="path24" class="st0" d="M12,27.2V27v-0.5v-0.4v-0.3v-0.4l-0.5-0.3C11.7,25.8,11.9,26.5,12,27.2z"/>
		<path id="path26" class="st0" d="M21,20.2L21,20.2l1.6,1l1.6-1V20v-0.5v-0.1c-0.6,0.4-1.4,0.7-2.2,0.7
			C21.7,20.2,21.3,20.2,21,20.2z"/>
		<path id="path28" class="st0" d="M14,30.6V29l-1.6-1l-0.3,0.2c0.1,0.5,0.1,0.9,0.1,1.3
			c0,0.7-0.1,1.3-0.1,1.7h1.1l0.8-0.5V30.6z"/>
		<path id="path30"  class="st0" d="M24.6,28L23,29v1.8l0.8,0.5h1.1c0-0.4-0.1-1-0.1-1.7
			c0-0.4,0-0.9,0.1-1.4L24.6,28z"/>
		<path id="path32" class="st0" d="M18.5,21.2l1.6-1l0,0c-0.8,0-1.6,0-1.6,0s-0.8,0-1.6,0l0,0L18.5,21.2z"/>
		<path id="path34"  class="st0" d="M24.6,20.9l-1.6,1v1.8l1.6,1l1.3-0.8c0.2-0.7,0.3-1.4,0.3-1.9
			v-0.1L24.6,20.9z"/>
		<path id="path36"  class="st0" d="M14,23.6v-1.7l-1.6-1l-1.6,1V22c0,0.5,0.1,1.1,0.3,1.8l1.3,0.8
			L14,23.6z"/>
		<path id="path38" class="st0" d="M16,20.2L16,20.2c-0.4,0-0.8,0-1,0c-0.7,0-1.5-0.3-2.2-0.7v0.1V20v0.2l1.6,1L16,20.2z"/>
		<polygon id="polygon40" class="st0" points="14.9,29 14.9,29.4 14.9,29.7 14.9,30.1 14.9,30.6 14.9,30.8 15.7,31.3 17.3,31.3 
			18.1,30.8 18.1,30.6 18.1,30.1 18.1,29.7 18.1,29.4 18.1,29 16.5,28 		"/>
		<polygon id="polygon42" class="st0" points="18.9,29 18.9,29.4 18.9,29.7 18.9,30.1 18.9,30.6 18.9,30.8 19.7,31.3 21.3,31.3 
			22.1,30.8 22.1,30.6 22.1,30.1 22.1,29.7 22.1,29.4 22.1,29 20.5,28 		"/>
		<path id="path49" class="st0" d="M31.7,14.1c-0.6-0.6-2.1-0.8-2.1-0.8c0,0.8,1,0.8,1,3.9S27.7,27.8,27.7,30s1,4.6,1,4.6H18.5H8.2
			c0,0,1-2.4,1-4.6s-2.9-9.7-2.9-12.8s1.1-3,1.1-3.9c0,0-1.5,0.1-2.1,0.8s0.4,4.7,0.4,4.7s2.4,8.8,2.4,11.3s-1.6,5.2-1.6,5.2h12h12
			c0,0-1.6-2.8-1.6-5.2s2.4-11.3,2.4-11.3S32.3,14.7,31.7,14.1L31.7,14.1z"/>
	</g>
</g>
</svg>
